STARTFONT 2.1
COMMENT /*
COMMENT  * Spleen 12x24
COMMENT  * Copyright (c) 2018, Frederic Cambus
COMMENT  * https://www.cambus.net/
COMMENT  *
COMMENT  * Created:      2018-08-15
COMMENT  * Last Updated: 2018-08-15
COMMENT  *
COMMENT  * Spleen is released under the BSD 2-Clause license.
COMMENT  * See LICENSE file for details.
COMMENT  */
FONT "-misc-spleen-medium-r-normal--24-240-72-72-C-120-iso10646-1"
SIZE 17 75 75
FONTBOUNDINGBOX 12 24 0 -6
STARTPROPERTIES 16
FAMILY_NAME "Spleen"
FOUNDRY "misc"
SLANT "R"
SETWIDTH_NAME "Normal"
PIXEL_SIZE 24
POINT_SIZE 240
RESOLUTION_X 72
RESOLUTION_Y 72
SPACING "C"
AVERAGE_WIDTH 120
CHARSET_REGISTRY "ISO10646"
CHARSET_ENCODING "1"
FONT_ASCENT 18
FONT_DESCENT 6
COPYRIGHT "Copyright (c) 2018, Frederic Cambus"
DEFAULT_CHAR 0
ENDPROPERTIES
CHARS 96
STARTCHAR 0x0020
ENCODING 32
SWIDTH 524 0
DWIDTH 12 0
BBX 12 24 0 -6
BITMAP
0000
0000
0000
0000
0000
0000
0000
0000
0000
0000
0000
0000
0000
0000
0000
0000
0000
0000
0000
0000
0000
0000
0000
0000
ENDCHAR
STARTCHAR 0x0021
ENCODING 33
SWIDTH 524 0
DWIDTH 12 0
BBX 12 24 0 -6
BITMAP
0000
0000
0000
0600
0600
0600
0600
0600
0600
0600
0600
0600
0600
0600
0000
0000
0600
0600
0000
0000
0000
0000
0000
0000
ENDCHAR
STARTCHAR 0x0022
ENCODING 34
SWIDTH 524 0
DWIDTH 12 0
BBX 12 24 0 -6
BITMAP
0000
30C0
30C0
30C0
30C0
30C0
30C0
30C0
0000
0000
0000
0000
0000
0000
0000
0000
0000
0000
0000
0000
0000
0000
0000
0000
ENDCHAR
STARTCHAR 0x0023
ENCODING 35
SWIDTH 524 0
DWIDTH 12 0
BBX 12 24 0 -6
BITMAP
0000
0000
0000
6180
6180
6180
FFE0
FFE0
6180
6180
6180
6180
6180
FFE0
FFE0
6180
6180
6180
0000
0000
0000
0000
0000
0000
ENDCHAR
STARTCHAR 0x004C
ENCODING 36
SWIDTH 524 0
DWIDTH 12 0
BBX 12 24 0 -6
BITMAP
0000
0C00
0C00
3FC0
7FC0
EC00
EC00
EC00
EC00
7F80
3FC0
0CC0
0CC0
0CC0
0CC0
0CC0
7FC0
FF80
0C00
0C00
0000
0000
0000
0000
ENDCHAR
STARTCHAR char47
ENCODING 37
SWIDTH 524 0
DWIDTH 12 0
BBX 12 24 0 -6
BITMAP
0000
0000
0000
0000
0060
0060
18C0
3DC0
1980
0380
0300
0300
0600
0E00
0C00
1CC0
19E0
18C0
3000
3000
0000
0000
0000
0000
ENDCHAR
STARTCHAR 0x0053
ENCODING 38
SWIDTH 524 0
DWIDTH 12 0
BBX 12 24 0 -6
BITMAP
0000
0000
0000
1F00
7F80
6180
6180
6180
7180
3F00
7F00
7E00
C7C0
C3C0
C380
C380
FFE0
7E60
0000
0000
0000
0000
0000
0000
ENDCHAR
STARTCHAR 0x0027
ENCODING 39
SWIDTH 524 0
DWIDTH 12 0
BBX 12 24 0 -6
BITMAP
0000
0600
0600
0600
0600
0600
0600
0600
0000
0000
0000
0000
0000
0000
0000
0000
0000
0000
0000
0000
0000
0000
0000
0000
ENDCHAR
STARTCHAR 0x005B
ENCODING 40
SWIDTH 524 0
DWIDTH 12 0
BBX 12 24 0 -6
BITMAP
0000
0000
0380
0F80
1E00
3800
3800
7000
6000
E000
E000
E000
E000
E000
E000
6000
7000
3000
3800
1E00
0F80
0380
0000
0000
ENDCHAR
STARTCHAR 0x005B
ENCODING 41
SWIDTH 524 0
DWIDTH 12 0
BBX 12 24 0 -6
BITMAP
0000
0000
7000
7C00
1E00
0700
0700
0380
0380
0180
0180
0180
0180
0180
0180
0380
0380
0300
0700
1E00
7C00
7000
0000
0000
ENDCHAR
STARTCHAR 0x002A
ENCODING 42
SWIDTH 524 0
DWIDTH 12 0
BBX 12 24 0 -6
BITMAP
0000
0000
0000
0000
0000
0000
0000
30C0
39C0
1F80
0F00
0F00
FFF0
7FE0
0F00
1F80
39C0
30C0
0000
0000
0000
0000
0000
0000
ENDCHAR
STARTCHAR 0x002B
ENCODING 43
SWIDTH 524 0
DWIDTH 12 0
BBX 12 24 0 -6
BITMAP
0000
0000
0000
0000
0000
0000
0000
0000
0000
0600
0600
0600
3FC0
3FC0
0600
0600
0600
0000
0000
0000
0000
0000
0000
0000
ENDCHAR
STARTCHAR 0x002C
ENCODING 44
SWIDTH 524 0
DWIDTH 12 0
BBX 12 24 0 -6
BITMAP
0000
0000
0000
0000
0000
0000
0000
0000
0000
0000
0000
0000
0000
0000
0000
0600
0600
0E00
1C00
0800
0000
0000
0000
0000
ENDCHAR
STARTCHAR 0x002B
ENCODING 45
SWIDTH 524 0
DWIDTH 12 0
BBX 12 24 0 -6
BITMAP
0000
0000
0000
0000
0000
0000
0000
0000
0000
0000
0000
0000
7FE0
7FE0
0000
0000
0000
0000
0000
0000
0000
0000
0000
0000
ENDCHAR
STARTCHAR 0x002C
ENCODING 46
SWIDTH 524 0
DWIDTH 12 0
BBX 12 24 0 -6
BITMAP
0000
0000
0000
0000
0000
0000
0000
0000
0000
0000
0000
0000
0000
0000
0000
0000
0600
0600
0000
0000
0000
0000
0000
0000
ENDCHAR
STARTCHAR char47
ENCODING 47
SWIDTH 524 0
DWIDTH 12 0
BBX 12 24 0 -6
BITMAP
0000
0000
0060
0060
00C0
0180
0180
0380
0300
0300
0600
0C00
0C00
1C00
1800
1800
3000
6000
6000
E000
C000
C000
0000
0000
ENDCHAR
STARTCHAR 0x004C
ENCODING 48
SWIDTH 524 0
DWIDTH 12 0
BBX 12 24 0 -6
BITMAP
0000
0000
0000
3F80
7FC0
E0C0
E0C0
E1C0
E3C0
E7C0
EEC0
FCC0
F8C0
F0C0
E0C0
E0C0
7FC0
3F80
0000
0000
0000
0000
0000
0000
ENDCHAR
STARTCHAR 0x004C
ENCODING 49
SWIDTH 524 0
DWIDTH 12 0
BBX 12 24 0 -6
BITMAP
0000
0000
0000
0E00
1E00
3600
2600
0600
0600
0600
0600
0600
0600
0600
0600
0600
3FC0
3FC0
0000
0000
0000
0000
0000
0000
ENDCHAR
STARTCHAR 0x004C
ENCODING 50
SWIDTH 524 0
DWIDTH 12 0
BBX 12 24 0 -6
BITMAP
0000
0000
0000
3F80
7FC0
E0C0
00C0
00C0
0180
0300
0700
0C00
1800
3800
6000
E0C0
FFC0
FFC0
0000
0000
0000
0000
0000
0000
ENDCHAR
STARTCHAR 0x004C
ENCODING 51
SWIDTH 524 0
DWIDTH 12 0
BBX 12 24 0 -6
BITMAP
0000
0000
0000
3F80
7FC0
E0C0
00C0
00C0
0180
1F80
1F80
00C0
00C0
00C0
00C0
E0C0
7FC0
3F80
0000
0000
0000
0000
0000
0000
ENDCHAR
STARTCHAR 0x004C
ENCODING 52
SWIDTH 524 0
DWIDTH 12 0
BBX 12 24 0 -6
BITMAP
0000
0000
0000
E000
E000
E000
E380
E380
E380
E380
E380
E380
FFC0
7FC0
0380
0380
0380
0380
0000
0000
0000
0000
0000
0000
ENDCHAR
STARTCHAR 0x004C
ENCODING 53
SWIDTH 524 0
DWIDTH 12 0
BBX 12 24 0 -6
BITMAP
0000
0000
0000
FFC0
FFC0
E0C0
E000
E000
E000
FF80
7FC0
00C0
00C0
00C0
00C0
E0C0
7FC0
3F80
0000
0000
0000
0000
0000
0000
ENDCHAR
STARTCHAR 0x004C
ENCODING 54
SWIDTH 524 0
DWIDTH 12 0
BBX 12 24 0 -6
BITMAP
0000
0000
0000
3F80
7FC0
E0C0
E000
E000
E000
FF80
FFC0
E0C0
E0C0
E0C0
E0C0
E0C0
7FC0
3F80
0000
0000
0000
0000
0000
0000
ENDCHAR
STARTCHAR 0x004C
ENCODING 55
SWIDTH 524 0
DWIDTH 12 0
BBX 12 24 0 -6
BITMAP
0000
0000
0000
FFC0
FFC0
E0C0
00C0
00C0
0180
0300
0700
0C00
1C00
1C00
1C00
1C00
1C00
1C00
0000
0000
0000
0000
0000
0000
ENDCHAR
STARTCHAR 0x004C
ENCODING 56
SWIDTH 524 0
DWIDTH 12 0
BBX 12 24 0 -6
BITMAP
0000
0000
0000
3F80
7FC0
E0C0
E0C0
E0C0
6180
3F80
7F80
60C0
E0C0
E0C0
E0C0
E0C0
7FC0
3F80
0000
0000
0000
0000
0000
0000
ENDCHAR
STARTCHAR 0x004C
ENCODING 57
SWIDTH 524 0
DWIDTH 12 0
BBX 12 24 0 -6
BITMAP
0000
0000
0000
3F80
7FC0
E0C0
E0C0
E0C0
E0C0
E0C0
7FC0
3FC0
00C0
00C0
00C0
E0C0
7FC0
3F80
0000
0000
0000
0000
0000
0000
ENDCHAR
STARTCHAR 0x002C
ENCODING 58
SWIDTH 524 0
DWIDTH 12 0
BBX 12 24 0 -6
BITMAP
0000
0000
0000
0000
0000
0000
0000
0000
0600
0600
0600
0000
0000
0000
0000
0000
0600
0600
0000
0000
0000
0000
0000
0000
ENDCHAR
STARTCHAR 0x002C
ENCODING 59
SWIDTH 524 0
DWIDTH 12 0
BBX 12 24 0 -6
BITMAP
0000
0000
0000
0000
0000
0000
0000
0000
0600
0600
0600
0000
0000
0000
0000
0600
0600
0E00
1C00
0800
0000
0000
0000
0000
ENDCHAR
STARTCHAR 0x003E
ENCODING 60
SWIDTH 524 0
DWIDTH 12 0
BBX 12 24 0 -6
BITMAP
0000
0000
00C0
01C0
0380
0700
0E00
1C00
3800
7000
E000
7000
3800
1C00
0E00
0700
0380
01C0
00C0
0000
0000
0000
0000
0000
ENDCHAR
STARTCHAR 0x002B
ENCODING 61
SWIDTH 524 0
DWIDTH 12 0
BBX 12 24 0 -6
BITMAP
0000
0000
0000
0000
0000
0000
0000
0000
0000
7FE0
7FE0
0000
0000
7FE0
7FE0
0000
0000
0000
0000
0000
0000
0000
0000
0000
ENDCHAR
STARTCHAR 0x003E
ENCODING 62
SWIDTH 524 0
DWIDTH 12 0
BBX 12 24 0 -6
BITMAP
0000
0000
4000
6000
7800
1800
0C00
0F00
0300
0180
01C0
0180
0300
0F00
0C00
1800
7800
6000
4000
0000
0000
0000
0000
0000
ENDCHAR
STARTCHAR 0x0021
ENCODING 63
SWIDTH 524 0
DWIDTH 12 0
BBX 12 24 0 -6
BITMAP
0000
0000
0000
3F80
7FC0
E0C0
00C0
01C0
0180
0300
0600
0C00
0C00
0C00
0000
0400
0C00
0C00
0000
0000
0000
0000
0000
0000
ENDCHAR
STARTCHAR 0x004C
ENCODING 64
SWIDTH 524 0
DWIDTH 12 0
BBX 12 24 0 -6
BITMAP
0000
0000
0000
0000
0000
0000
3F80
7FC0
E0C0
E4C0
EEC0
EEC0
EEC0
EFC0
EFC0
E000
7F80
3F80
0000
0000
0000
0000
0000
0000
ENDCHAR
STARTCHAR 0x004C
ENCODING 65
SWIDTH 524 0
DWIDTH 12 0
BBX 12 24 0 -6
BITMAP
0000
0000
0000
3F80
7FC0
E0C0
E0C0
E0C0
E0C0
FFC0
FFC0
E0C0
E0C0
E0C0
E0C0
E0C0
E0C0
E0C0
0000
0000
0000
0000
0000
0000
ENDCHAR
STARTCHAR 0x004C
ENCODING 66
SWIDTH 524 0
DWIDTH 12 0
BBX 12 24 0 -6
BITMAP
0000
0000
0000
FF80
FFC0
E0C0
E0C0
E0C0
E180
FF80
FF80
E0C0
E0C0
E0C0
E0C0
E0C0
FFC0
FF80
0000
0000
0000
0000
0000
0000
ENDCHAR
STARTCHAR 0x004C
ENCODING 67
SWIDTH 524 0
DWIDTH 12 0
BBX 12 24 0 -6
BITMAP
0000
0000
0000
3FC0
7FC0
E0C0
E000
E000
E000
E000
E000
E000
E000
E000
E000
E000
7FC0
3FC0
0000
0000
0000
0000
0000
0000
ENDCHAR
STARTCHAR 0x004C
ENCODING 68
SWIDTH 524 0
DWIDTH 12 0
BBX 12 24 0 -6
BITMAP
0000
0000
0000
FF80
FFC0
E0C0
E0C0
E0C0
E0C0
E0C0
E0C0
E0C0
E0C0
E0C0
E0C0
E0C0
FFC0
FF80
0000
0000
0000
0000
0000
0000
ENDCHAR
STARTCHAR 0x004C
ENCODING 69
SWIDTH 524 0
DWIDTH 12 0
BBX 12 24 0 -6
BITMAP
0000
0000
0000
3FC0
7FC0
E000
E000
E000
E000
FF00
FF00
E000
E000
E000
E000
E000
7FC0
3FC0
0000
0000
0000
0000
0000
0000
ENDCHAR
STARTCHAR 0x004C
ENCODING 70
SWIDTH 524 0
DWIDTH 12 0
BBX 12 24 0 -6
BITMAP
0000
0000
0000
3FC0
7FC0
E0C0
E000
E000
E000
FF00
FF00
E000
E000
E000
E000
E000
E000
E000
0000
0000
0000
0000
0000
0000
ENDCHAR
STARTCHAR 0x004C
ENCODING 71
SWIDTH 524 0
DWIDTH 12 0
BBX 12 24 0 -6
BITMAP
0000
0000
0000
3FC0
7FC0
E0C0
E000
E000
E000
E7C0
E7C0
E0C0
E0C0
E0C0
E0C0
E0C0
7FC0
3FC0
0000
0000
0000
0000
0000
0000
ENDCHAR
STARTCHAR 0x004C
ENCODING 72
SWIDTH 524 0
DWIDTH 12 0
BBX 12 24 0 -6
BITMAP
0000
0000
0000
E0C0
E0C0
E0C0
E0C0
E0C0
E0C0
FFC0
FFC0
E0C0
E0C0
E0C0
E0C0
E0C0
E0C0
E0C0
0000
0000
0000
0000
0000
0000
ENDCHAR
STARTCHAR 0x004C
ENCODING 73
SWIDTH 524 0
DWIDTH 12 0
BBX 12 24 0 -6
BITMAP
0000
0000
0000
7F80
7F80
0C00
0C00
0C00
0C00
0C00
0C00
0C00
0C00
0C00
0C00
0C00
7F80
7F80
0000
0000
0000
0000
0000
0000
ENDCHAR
STARTCHAR 0x004C
ENCODING 74
SWIDTH 524 0
DWIDTH 12 0
BBX 12 24 0 -6
BITMAP
0000
0000
0000
7F80
7F80
0C00
0C00
0C00
0C00
0C00
0C00
0C00
0C00
0C00
0C00
0C00
7C00
F800
0000
0000
0000
0000
0000
0000
ENDCHAR
STARTCHAR 0x004C
ENCODING 75
SWIDTH 524 0
DWIDTH 12 0
BBX 12 24 0 -6
BITMAP
0000
0000
0000
E0C0
E0C0
E0C0
E0C0
E0C0
E180
FF80
FF80
E0C0
E0C0
E0C0
E0C0
E0C0
E0C0
E0C0
0000
0000
0000
0000
0000
0000
ENDCHAR
STARTCHAR 0x004C
ENCODING 76
SWIDTH 524 0
DWIDTH 12 0
BBX 12 24 0 -6
BITMAP
0000
0000
0000
E000
E000
E000
E000
E000
E000
E000
E000
E000
E000
E000
E000
E000
7F80
3F80
0000
0000
0000
0000
0000
0000
ENDCHAR
STARTCHAR 0x004C
ENCODING 77
SWIDTH 524 0
DWIDTH 12 0
BBX 12 24 0 -6
BITMAP
0000
0000
0000
E1C0
FBC0
FFC0
EEC0
ECC0
E0C0
E0C0
E0C0
E0C0
E0C0
E0C0
E0C0
E0C0
E0C0
E0C0
0000
0000
0000
0000
0000
0000
ENDCHAR
STARTCHAR 0x004C
ENCODING 78
SWIDTH 524 0
DWIDTH 12 0
BBX 12 24 0 -6
BITMAP
0000
0000
0000
E0C0
E0C0
E0C0
F0C0
F8C0
F8C0
FCC0
ECC0
ECC0
E6C0
E7C0
E3C0
E3C0
E1C0
E1C0
0000
0000
0000
0000
0000
0000
ENDCHAR
STARTCHAR 0x004C
ENCODING 79
SWIDTH 524 0
DWIDTH 12 0
BBX 12 24 0 -6
BITMAP
0000
0000
0000
3F80
7FC0
E0C0
E0C0
E0C0
E0C0
E0C0
E0C0
E0C0
E0C0
E0C0
E0C0
E0C0
7FC0
3F80
0000
0000
0000
0000
0000
0000
ENDCHAR
STARTCHAR 0x004C
ENCODING 80
SWIDTH 524 0
DWIDTH 12 0
BBX 12 24 0 -6
BITMAP
0000
0000
0000
FF80
FFC0
E0C0
E0C0
E0C0
E1C0
FF80
FF00
E000
E000
E000
E000
E000
E000
E000
0000
0000
0000
0000
0000
0000
ENDCHAR
STARTCHAR 0x004C
ENCODING 81
SWIDTH 524 0
DWIDTH 12 0
BBX 12 24 0 -6
BITMAP
0000
0000
0000
3FC0
7FC0
E0C0
E0C0
E0C0
E0C0
E0C0
E0C0
E0C0
E0C0
ECC0
ECC0
ECC0
FFC0
FF80
0C00
0C00
0C00
0000
0000
0000
ENDCHAR
STARTCHAR 0x004C
ENCODING 82
SWIDTH 524 0
DWIDTH 12 0
BBX 12 24 0 -6
BITMAP
0000
0000
0000
FF80
FFC0
E0C0
E0C0
E0C0
E180
FF80
FF80
E0C0
E0C0
E0C0
E0C0
E0C0
E0C0
E0C0
0000
0000
0000
0000
0000
0000
ENDCHAR
STARTCHAR 0x004C
ENCODING 83
SWIDTH 524 0
DWIDTH 12 0
BBX 12 24 0 -6
BITMAP
0000
0000
0000
3FC0
7FC0
E000
E000
E000
E000
7F80
3FC0
00C0
00C0
00C0
00C0
00C0
7FC0
FF80
0000
0000
0000
0000
0000
0000
ENDCHAR
STARTCHAR 0x004C
ENCODING 84
SWIDTH 524 0
DWIDTH 12 0
BBX 12 24 0 -6
BITMAP
0000
0000
0000
FFE0
FFE0
0C00
0C00
0C00
0C00
0C00
0C00
0C00
0C00
0C00
0C00
0C00
0C00
0C00
0000
0000
0000
0000
0000
0000
ENDCHAR
STARTCHAR 0x004C
ENCODING 85
SWIDTH 524 0
DWIDTH 12 0
BBX 12 24 0 -6
BITMAP
0000
0000
0000
E0C0
E0C0
E0C0
E0C0
E0C0
E0C0
E0C0
E0C0
E0C0
E0C0
E0C0
E0C0
E0C0
7FC0
3FC0
0000
0000
0000
0000
0000
0000
ENDCHAR
STARTCHAR 0x004C
ENCODING 86
SWIDTH 524 0
DWIDTH 12 0
BBX 12 24 0 -6
BITMAP
0000
0000
0000
E0C0
E0C0
E0C0
E0C0
E0C0
E0C0
E0C0
E0C0
E0C0
E0C0
61C0
6180
3300
1F00
0C00
0000
0000
0000
0000
0000
0000
ENDCHAR
STARTCHAR 0x004C
ENCODING 87
SWIDTH 524 0
DWIDTH 12 0
BBX 12 24 0 -6
BITMAP
0000
0000
0000
E0C0
E0C0
E0C0
E0C0
E0C0
E0C0
E0C0
E0C0
E0C0
E0C0
ECC0
EEC0
FFC0
FBC0
E1C0
0000
0000
0000
0000
0000
0000
ENDCHAR
STARTCHAR 0x004C
ENCODING 88
SWIDTH 524 0
DWIDTH 12 0
BBX 12 24 0 -6
BITMAP
0000
0000
0000
E0C0
E0C0
E0C0
E0C0
61C0
3180
1F00
3F00
6180
E0C0
E0C0
E0C0
E0C0
E0C0
E0C0
0000
0000
0000
0000
0000
0000
ENDCHAR
STARTCHAR 0x004C
ENCODING 89
SWIDTH 524 0
DWIDTH 12 0
BBX 12 24 0 -6
BITMAP
0000
0000
0000
E0C0
E0C0
E0C0
E0C0
E0C0
E0C0
7FC0
3FC0
00C0
00C0
00C0
00C0
00C0
7FC0
FF80
0000
0000
0000
0000
0000
0000
ENDCHAR
STARTCHAR 0x004C
ENCODING 90
SWIDTH 524 0
DWIDTH 12 0
BBX 12 24 0 -6
BITMAP
0000
0000
0000
FFC0
7FC0
00C0
00C0
01C0
0180
0300
0E00
0C00
1800
7000
6000
E000
FFC0
FFC0
0000
0000
0000
0000
0000
0000
ENDCHAR
STARTCHAR 0x005B
ENCODING 91
SWIDTH 524 0
DWIDTH 12 0
BBX 12 24 0 -6
BITMAP
0000
7F80
7F80
6000
6000
6000
6000
6000
6000
6000
6000
6000
6000
6000
6000
6000
6000
6000
6000
6000
6000
7F80
7F80
0000
ENDCHAR
STARTCHAR char47
ENCODING 92
SWIDTH 524 0
DWIDTH 12 0
BBX 12 24 0 -6
BITMAP
0000
0000
C000
C000
E000
6000
6000
3000
1800
1800
1C00
0C00
0C00
0600
0300
0300
0380
0180
0180
00C0
0060
0060
0000
0000
ENDCHAR
STARTCHAR 0x005B
ENCODING 93
SWIDTH 524 0
DWIDTH 12 0
BBX 12 24 0 -6
BITMAP
0000
7F80
7F80
0180
0180
0180
0180
0180
0180
0180
0180
0180
0180
0180
0180
0180
0180
0180
0180
0180
0180
7F80
7F80
0000
ENDCHAR
STARTCHAR 0x005E
ENCODING 94
SWIDTH 524 0
DWIDTH 12 0
BBX 12 24 0 -6
BITMAP
0000
0C00
0E00
1F00
7B80
61C0
C0E0
C060
0000
0000
0000
0000
0000
0000
0000
0000
0000
0000
0000
0000
0000
0000
0000
0000
ENDCHAR
STARTCHAR 0x005F
ENCODING 95
SWIDTH 524 0
DWIDTH 12 0
BBX 12 24 0 -6
BITMAP
0000
0000
0000
0000
0000
0000
0000
0000
0000
0000
0000
0000
0000
0000
0000
0000
0000
0000
0000
0000
0000
FFE0
FFE0
0000
ENDCHAR
STARTCHAR 0x0060
ENCODING 96
SWIDTH 524 0
DWIDTH 12 0
BBX 12 24 0 -6
BITMAP
0000
1800
1800
0C00
0F00
0300
0000
0000
0000
0000
0000
0000
0000
0000
0000
0000
0000
0000
0000
0000
0000
0000
0000
0000
ENDCHAR
STARTCHAR 0x004C
ENCODING 97
SWIDTH 524 0
DWIDTH 12 0
BBX 12 24 0 -6
BITMAP
0000
0000
0000
0000
0000
0000
0000
7F00
7F80
01C0
3FC0
7FC0
E0C0
E0C0
E0C0
E0C0
7FC0
3FC0
0000
0000
0000
0000
0000
0000
ENDCHAR
STARTCHAR 0x004C
ENCODING 98
SWIDTH 524 0
DWIDTH 12 0
BBX 12 24 0 -6
BITMAP
0000
0000
0000
E000
E000
E000
E000
FF00
FF80
E1C0
E0C0
E0C0
E0C0
E0C0
E0C0
E0C0
FFC0
FF80
0000
0000
0000
0000
0000
0000
ENDCHAR
STARTCHAR 0x004C
ENCODING 99
SWIDTH 524 0
DWIDTH 12 0
BBX 12 24 0 -6
BITMAP
0000
0000
0000
0000
0000
0000
0000
3FC0
7FC0
E0C0
E0C0
E000
E000
E000
E000
E000
7FC0
3FC0
0000
0000
0000
0000
0000
0000
ENDCHAR
STARTCHAR 0x004C
ENCODING 100
SWIDTH 524 0
DWIDTH 12 0
BBX 12 24 0 -6
BITMAP
0000
0000
0000
00C0
00C0
00C0
00C0
3FC0
7FC0
E0C0
E0C0
E0C0
E0C0
E0C0
E0C0
E0C0
7FC0
3FC0
0000
0000
0000
0000
0000
0000
ENDCHAR
STARTCHAR 0x004C
ENCODING 101
SWIDTH 524 0
DWIDTH 12 0
BBX 12 24 0 -6
BITMAP
0000
0000
0000
0000
0000
0000
0000
3FC0
7FC0
E0C0
E0C0
E0C0
FFC0
FFC0
E000
E000
7FC0
3FC0
0000
0000
0000
0000
0000
0000
ENDCHAR
STARTCHAR 0x004C
ENCODING 102
SWIDTH 524 0
DWIDTH 12 0
BBX 12 24 0 -6
BITMAP
0000
0000
0000
0F80
1F80
1800
1800
1800
1800
7F00
7F00
1800
1800
1800
1800
1800
1800
1800
0000
0000
0000
0000
0000
0000
ENDCHAR
STARTCHAR 0x004C
ENCODING 103
SWIDTH 524 0
DWIDTH 12 0
BBX 12 24 0 -6
BITMAP
0000
0000
0000
0000
0000
0000
0000
3FC0
7FC0
E0C0
E0C0
E0C0
E0C0
E0C0
E0C0
E0C0
7F80
3F80
0180
00C0
01C0
FF80
7F00
0000
ENDCHAR
STARTCHAR 0x004C
ENCODING 104
SWIDTH 524 0
DWIDTH 12 0
BBX 12 24 0 -6
BITMAP
0000
0000
0000
E000
E000
E000
E000
FF00
FF80
E1C0
E0C0
E0C0
E0C0
E0C0
E0C0
E0C0
E0C0
E0C0
0000
0000
0000
0000
0000
0000
ENDCHAR
STARTCHAR 0x004C
ENCODING 105
SWIDTH 524 0
DWIDTH 12 0
BBX 12 24 0 -6
BITMAP
0000
0000
0000
0C00
0C00
0000
0000
0C00
0C00
0C00
0C00
0C00
0C00
0C00
0C00
0C00
0C00
0C00
0000
0000
0000
0000
0000
0000
ENDCHAR
STARTCHAR 0x004C
ENCODING 106
SWIDTH 524 0
DWIDTH 12 0
BBX 12 24 0 -6
BITMAP
0000
0000
0000
0C00
0C00
0000
0000
0C00
0C00
0C00
0C00
0C00
0C00
0C00
0C00
0C00
0C00
0C00
0C00
0C00
0C00
7800
7800
0000
ENDCHAR
STARTCHAR 0x004C
ENCODING 107
SWIDTH 524 0
DWIDTH 12 0
BBX 12 24 0 -6
BITMAP
0000
0000
0000
E000
E000
E000
E000
E300
E700
EE00
FC00
F800
F800
FC00
EE00
E700
E380
E180
0000
0000
0000
0000
0000
0000
ENDCHAR
STARTCHAR 0x004C
ENCODING 108
SWIDTH 524 0
DWIDTH 12 0
BBX 12 24 0 -6
BITMAP
0000
0000
0000
1800
1800
1800
1800
1800
1800
1800
1800
1800
1800
1800
1800
1800
1F80
0F80
0000
0000
0000
0000
0000
0000
ENDCHAR
STARTCHAR 0x004C
ENCODING 109
SWIDTH 524 0
DWIDTH 12 0
BBX 12 24 0 -6
BITMAP
0000
0000
0000
0000
0000
0000
0000
3BC0
7BC0
ECC0
ECC0
ECC0
ECC0
ECC0
ECC0
E0C0
E0C0
E0C0
0000
0000
0000
0000
0000
0000
ENDCHAR
STARTCHAR 0x004C
ENCODING 110
SWIDTH 524 0
DWIDTH 12 0
BBX 12 24 0 -6
BITMAP
0000
0000
0000
0000
0000
0000
0000
3FC0
7FC0
E0C0
E0C0
E0C0
E0C0
E0C0
E0C0
E0C0
E0C0
E0C0
0000
0000
0000
0000
0000
0000
ENDCHAR
STARTCHAR 0x004C
ENCODING 111
SWIDTH 524 0
DWIDTH 12 0
BBX 12 24 0 -6
BITMAP
0000
0000
0000
0000
0000
0000
0000
3F00
7F80
E1C0
E0C0
E0C0
E0C0
E0C0
E0C0
E0C0
7FC0
3F80
0000
0000
0000
0000
0000
0000
ENDCHAR
STARTCHAR 0x004C
ENCODING 112
SWIDTH 524 0
DWIDTH 12 0
BBX 12 24 0 -6
BITMAP
0000
0000
0000
0000
0000
0000
0000
7F00
FF80
E1C0
E0C0
E0C0
E0C0
E0C0
E0C0
E0C0
FFC0
FF80
E000
E000
E000
E000
4000
0000
ENDCHAR
STARTCHAR 0x004C
ENCODING 113
SWIDTH 524 0
DWIDTH 12 0
BBX 12 24 0 -6
BITMAP
0000
0000
0000
0000
0000
0000
0000
3FC0
7FC0
E0C0
E0C0
E0C0
E0C0
E0C0
E0C0
E0C0
7FC0
3FC0
00C0
00C0
00C0
00C0
00C0
0000
ENDCHAR
STARTCHAR 0x004C
ENCODING 114
SWIDTH 524 0
DWIDTH 12 0
BBX 12 24 0 -6
BITMAP
0000
0000
0000
0000
0000
0000
0000
3FC0
7FC0
E0C0
E0C0
E000
E000
E000
E000
E000
E000
E000
0000
0000
0000
0000
0000
0000
ENDCHAR
STARTCHAR 0x004C
ENCODING 115
SWIDTH 524 0
DWIDTH 12 0
BBX 12 24 0 -6
BITMAP
0000
0000
0000
0000
0000
0000
0000
3FC0
7FC0
E000
E000
E000
7F80
7FC0
00C0
00C0
7FC0
FF80
0000
0000
0000
0000
0000
0000
ENDCHAR
STARTCHAR 0x004C
ENCODING 116
SWIDTH 524 0
DWIDTH 12 0
BBX 12 24 0 -6
BITMAP
0000
0000
0000
1800
1800
1800
1800
7F00
7F00
1800
1800
1800
1800
1800
1800
1800
1F80
0F80
0000
0000
0000
0000
0000
0000
ENDCHAR
STARTCHAR 0x004C
ENCODING 117
SWIDTH 524 0
DWIDTH 12 0
BBX 12 24 0 -6
BITMAP
0000
0000
0000
0000
0000
0000
0000
40C0
E0C0
E0C0
E0C0
E0C0
E0C0
E0C0
E0C0
E0C0
7FC0
3FC0
0000
0000
0000
0000
0000
0000
ENDCHAR
STARTCHAR 0x004C
ENCODING 118
SWIDTH 524 0
DWIDTH 12 0
BBX 12 24 0 -6
BITMAP
0000
0000
0000
0000
0000
0000
0000
40C0
E0C0
E0C0
E0C0
E0C0
E0C0
61C0
6180
3300
1F00
0C00
0000
0000
0000
0000
0000
0000
ENDCHAR
STARTCHAR 0x004C
ENCODING 119
SWIDTH 524 0
DWIDTH 12 0
BBX 12 24 0 -6
BITMAP
0000
0000
0000
0000
0000
0000
0000
40C0
E0C0
E0C0
ECC0
ECC0
ECC0
ECC0
ECC0
ECC0
7FC0
3BC0
0000
0000
0000
0000
0000
0000
ENDCHAR
STARTCHAR 0x004C
ENCODING 120
SWIDTH 524 0
DWIDTH 12 0
BBX 12 24 0 -6
BITMAP
0000
0000
0000
0000
0000
0000
0000
40C0
E0C0
6180
3B00
1E00
1E00
3B00
6180
6180
E0C0
E0C0
0000
0000
0000
0000
0000
0000
ENDCHAR
STARTCHAR 0x004C
ENCODING 121
SWIDTH 524 0
DWIDTH 12 0
BBX 12 24 0 -6
BITMAP
0000
0000
0000
0000
0000
0000
0000
40C0
E0C0
E0C0
E0C0
E0C0
E0C0
E0C0
E0C0
E0C0
7FC0
3FC0
00C0
00C0
01C0
FF80
7F00
0000
ENDCHAR
STARTCHAR 0x004C
ENCODING 122
SWIDTH 524 0
DWIDTH 12 0
BBX 12 24 0 -6
BITMAP
0000
0000
0000
0000
0000
0000
0000
7FC0
FFC0
00C0
0180
0300
0600
0C00
1800
3000
7FC0
FFC0
0000
0000
0000
0000
0000
0000
ENDCHAR
STARTCHAR 0x005B
ENCODING 123
SWIDTH 524 0
DWIDTH 12 0
BBX 12 24 0 -6
BITMAP
0000
0F80
0F80
1800
1800
1800
1800
1800
1800
1800
F800
E000
E000
F800
1800
1800
1800
1800
1800
1800
1800
0F80
0F80
0000
ENDCHAR
STARTCHAR 0x007C
ENCODING 124
SWIDTH 524 0
DWIDTH 12 0
BBX 12 24 0 -6
BITMAP
0000
0000
0000
0C00
0C00
0C00
0C00
0C00
0C00
0C00
0C00
0C00
0C00
0C00
0C00
0C00
0C00
0C00
0C00
0C00
0C00
0000
0000
0000
ENDCHAR
STARTCHAR 0x005B
ENCODING 125
SWIDTH 524 0
DWIDTH 12 0
BBX 12 24 0 -6
BITMAP
0000
F800
F800
0C00
0C00
0C00
0C00
0C00
0C00
0C00
0F80
0380
0380
0F80
0C00
0C00
0C00
0C00
0C00
0C00
0C00
F800
F800
0000
ENDCHAR
STARTCHAR 0x007E
ENCODING 126
SWIDTH 524 0
DWIDTH 12 0
BBX 12 24 0 -6
BITMAP
0000
0000
1860
3C60
7FE0
6380
0000
0000
0000
0000
0000
0000
0000
0000
0000
0000
0000
0000
0000
0000
0000
0000
0000
0000
ENDCHAR
STARTCHAR 0x007F
ENCODING 127
SWIDTH 524 0
DWIDTH 12 0
BBX 12 24 0 -6
BITMAP
0000
0000
0000
0000
0000
0000
0000
0000
0000
0000
0000
0000
0000
0000
0000
0000
0000
0000
0000
0000
0000
0000
0000
0000
ENDCHAR
ENDFONT
